# xmcd CD database file
#
# Track frame offsets:
#	150
#	12845
#	27152
#	40600
#	55345
#	67367
#	81237
#	94760
#	108865
#	122797
#	134930
#	146030
#	159357
#	171110
#	184960
#	199285
#	212225
#	223172
#	234907
#	249465
#	262872
#	276280
#
# Disc length: 3862 seconds
#
# Revision: 0
# Processed by: cddbd v1.5.1PL0 Copyright (c) Steve Scherf et al.
# Submitted via: CDex 1.51
#
DISCID=4d0f1416
DTITLE=Benny Goodman - Small Combos
DYEAR=1900
DGENRE=Jazz
TTITLE0=Sweet Georgia Brown
TTITLE1=I'll Always Be In Love With You
TTITLE2=St Louis Blues
TTITLE3=I Can't Get Started
TTITLE4=I Know That You Know
TTITLE5=I Never Knew
TTITLE6=Puttin' On The Ritz
TTITLE7=Makin' Whoopee
TTITLE8=Hi' Ya Sophia
TTITLE9=The Varsity Drag
TTITLE10=Bye Bye Pretty Baby
TTITLE11=Blue (And Broken Hearted)
TTITLE12=All I Do Is Dream Of You
TTITLE13=After Hours
TTITLE14=I'll Never Be The Same Again
TTITLE15=Stompin' At The Savoy
TTITLE16=At Sundown
TTITLE17=When You're Smiking
TTITLE18=High Falutin'
TTITLE19=Behave Yourself
TTITLE20=There's A Small Hotel
TTITLE21=Blue Lou
EXTD=
EXTT0=
EXTT1=
EXTT2=
EXTT3=
EXTT4=
EXTT5=
EXTT6=
EXTT7=
EXTT8=
EXTT9=
EXTT10=
EXTT11=
EXTT12=
EXTT13=
EXTT14=
EXTT15=
EXTT16=
EXTT17=
EXTT18=
EXTT19=
EXTT20=
EXTT21=
PLAYORDER=
